<?xml version="1.0" encoding="utf-8"?><!-- Uploaded to: SVG Repo, www.svgrepo.com, Generator: SVG Repo Mixer Tools -->
<svg width="800px" height="800px" viewBox="0 0 40 40" fill="none" xmlns="http://www.w3.org/2000/svg">
<rect width="40" height="40" rx="8" fill="#000000" fill-opacity="0.4"/>
<path fill-rule="evenodd" clip-rule="evenodd" d="M16.7333 7.86667H23.2667C24.482 7.86667 25.5206 8.64758 25.9064 9.73335H28.4C28.8789 9.73335 29.3395 9.91742 29.6865 10.2475C30.0335 10.5776 30.2404 11.0284 30.2643 11.5067L30.2667 11.6V30.2667C30.2667 30.7456 30.0826 31.2062 29.7525 31.5532C29.4225 31.9002 28.9717 32.1071 28.4933 32.131L28.4 32.1333H11.6C11.1211 32.1333 10.6605 31.9493 10.3135 31.6192C9.96649 31.2891 9.75962 30.8383 9.73567 30.36L9.73334 30.2667V11.6C9.73334 11.1211 9.91741 10.6605 10.2475 10.3135C10.5775 9.9665 11.0284 9.75963 11.5067 9.73568L11.6 9.73335H14.0937C14.4794 8.64758 15.518 7.86667 16.7333 7.86667ZM15.8021 10.7289C15.8043 10.6966 15.8047 10.6642 15.8035 10.6317C15.8032 10.6226 15.8027 10.6135 15.8021 10.6045C15.8347 10.1219 16.2432 9.73334 16.7333 9.73334H23.2667C23.7777 9.73334 24.2 10.1557 24.2 10.6667C24.2 11.1777 23.7777 11.6 23.2667 11.6H16.7333C16.2432 11.6 15.8347 11.2115 15.8021 10.7289Z" fill="white"/>
<path d="M23.8136 18.1332C24.178 17.7688 24.7689 17.7689 25.1333 18.1333V18.1333C25.4978 18.4977 25.4978 19.0886 25.1333 19.4531L19.7265 24.8598C19.5515 25.0348 19.3142 25.1331 19.0667 25.1331C18.8192 25.1331 18.5818 25.0348 18.4068 24.8598L15.3334 21.7864C14.9689 21.422 14.9689 20.8311 15.3334 20.4666V20.4666C15.6978 20.1022 16.2886 20.1021 16.6531 20.4665L19.0667 22.8793L23.8136 18.1332Z" fill="#B5B5B5"/>
</svg>