<?xml version="1.0" encoding="utf-8"?><!-- Uploaded to: SVG Repo, www.svgrepo.com, Generator: SVG Repo Mixer Tools -->
<svg width="800px" height="800px" viewBox="0 0 48 48" xmlns="http://www.w3.org/2000/svg"><title>70 Basic icons by Xicons.co</title><path d="M47,15.89a2.86,2.86,0,0,0-.54-2.23L41.53,7.14a3.26,3.26,0,0,0-4.38-.72L35,7.82A20.72,20.72,0,0,0,31.37,6V3.5a1.92,1.92,0,0,0-.21-0.87A2.63,2.63,0,0,0,28.43,1H20a4.7,4.7,0,0,0-2.55.91,2,2,0,0,0-.83,1.59V6.07A19.72,19.72,0,0,0,13,7.91L10.75,6.38a3.24,3.24,0,0,0-2.34-.5,3.15,3.15,0,0,0-2,1.24L1.57,13.67a2.91,2.91,0,0,0,.79,4.18l2.38,1.58a18,18,0,0,0,.08,8.87L2.76,29.69a3,3,0,0,0-1.28,1.95A2.87,2.87,0,0,0,2,33.88l4.88,6.51a3.16,3.16,0,0,0,2,1.22,3.31,3.31,0,0,0,2.38-.53l2-1.37a18.35,18.35,0,0,0,3.33,1.69v2.42A3.46,3.46,0,0,0,20,47h8.42a3,3,0,0,0,2.94-3.19V41.4A20.73,20.73,0,0,0,35,39.62l1.85,1.21a3.3,3.3,0,0,0,2.38.5,3.16,3.16,0,0,0,2-1.23l4.84-6.56a2.91,2.91,0,0,0-.77-4.18L43.64,28.2a17.91,17.91,0,0,0,0-9l2-1.38A3,3,0,0,0,47,15.89Z" fill="#c8c8c8"/><path d="M24,34A10,10,0,1,1,34,24,10,10,0,0,1,24,34Z" fill="#b0b5b9"/><circle cx="24" cy="24" r="5" fill="#747a7d"/></svg>